<?xml version="1.0" standalone="no"?> <!DOCTYPE svg PUBLIC "-//W3C//DTD SVG 1.0//EN" "http://www.w3.org/TR/2001/REC-SVG-20010904/DTD/svg10.dtd" > <svg xmlns="http://www.w3.org/2000/svg" width="100%" height="100%">
<defs >
<font id="coconnextarabiclight" horiz-adv-x="856" ><font-face
    font-family="Cocon? Next Arabic"
    units-per-em="2048"
    panose-1="2 10 5 3 2 1 2 2 2 4"
    ascent="1689"
    descent="-491"
    alphabetic="0" />
<missing-glyph horiz-adv-x="1126" />
<glyph unicode=" " glyph-name="space" horiz-adv-x="499" />
<glyph unicode="!" glyph-name="exclam" horiz-adv-x="612" d="M365 406H328Q226 406 223 528L199 1255H279Q330 1255 359 1224T389 1133L365 406ZM430 186T430 129T394 36T301 0T207 36T168 129T206 222T301 260T393 223Z" />
<glyph unicode="&quot;" glyph-name="quotedbl" horiz-adv-x="792" d="M621 807H598Q550 807 525 840T494 950L471 1253H541Q647 1253 647 1116L621 807ZM279 807H258Q160 807 152 950L131 1253H201Q305 1253 305 1116L279 807Z" />
<glyph unicode="#" glyph-name="numbersign" horiz-adv-x="1064" d="M889 784H807L752 465H903V440Q903 350 809 350H729L664 0H623Q589 0 572 14T555 66Q555 84 561 115L604 350H350L289 0H244Q211 0 195 15T178 68Q178 88 184 117L227 350H63V377Q63 465 156
465H250L307 784H143V809Q143 897 236 897H326L389 1253H418Q498 1253 498 1180Q498 1171 494 1143L449 897H702L766 1253H793Q874 1253 874 1174Q874 1161 870 1137L827 897H985V874Q985 832 961 808T889 784ZM428 784L373 465H627L684 784H428Z" />
<glyph unicode="$" glyph-name="dollar" horiz-adv-x="1064" d="M940 358Q938 218 844 122T578 4V-219H541Q501 -219 487 -205T473 -154V-2Q329 1 230 73T131 242V317H141Q199 236 291 191T496 145Q645 145 711 192T778 342Q778 393 768 422T720 480T613 532T422
584Q351 601 299 622T204 677T138 759T115 874Q115 1014 210 1113T473 1235V1473H502Q578 1473 578 1407V1239Q657 1238 718 1220T814 1175T871 1115T900 1057T907 1010V952H893Q836 1027 760 1060T559 1094Q503 1094 456 1085T366 1055T300 995T276 903Q276 864
286 838T316 792T382 753T480 719T625 680Q694 663 747 639T845 578T915 485T940 358Z" />
<glyph unicode="%" glyph-name="percent" horiz-adv-x="1847" d="M403 463Q273 463 194 573T115 846Q115 1028 196 1141T420 1255Q550 1255 629 1145T709 874Q709 692 628 578T403 463ZM690 0H639Q580 0 580 49Q580 80 600 127L1104 1237H1153Q1173 1237 1190
1215T1208 1161Q1208 1141 1198 1114L690 0ZM1413 -18Q1283 -18 1203 92T1122 365Q1122 547 1204 659T1430 772Q1560 772 1639 663T1718 393Q1718 209 1637 96T1413 -18ZM406 1116Q330 1116 295 1047T260 872Q260 604 418 604Q492 604 526 673T561 846Q561 1116
406 1116ZM1413 635Q1363 635 1330 599T1283 510T1270 391Q1270 121 1427 121Q1501 121 1536 191T1571 365Q1571 635 1413 635Z" />
<glyph unicode="&amp;" glyph-name="ampersand" horiz-adv-x="1251" d="M1102 -16Q1048 -17 1006 3T918 70L848 139Q811 102 786 81T718 34T619 -5T494 -18Q305 -18 210 76T115 326Q115 430 177 522T360 688Q291 763 260 824T229 950Q229 1009 250 1063T311 1160T416
1229T565 1255Q696 1255 779 1182T862 987Q862 895 797 819T575 653Q708 488 850 346Q917 422 952 510T993 680H1036Q1065 680 1088 652T1112 578Q1112 509 1068 422T950 246Q1050 146 1096 111T1202 68Q1182 13 1163 -1T1102 -16ZM555 1112Q477 1112 434 1072T391
952Q391 923 402 895T426 848T463 801T498 756Q604 813 655 861T707 967Q707 1037 666 1074T555 1112ZM442 582Q276 478 276 356Q276 127 522 127Q588 127 642 155T756 242Q634 363 442 582Z" />
<glyph unicode="&apos;" glyph-name="quotesingle" horiz-adv-x="622" d="M377 834H356Q309 834 284 867T252 975L229 1274H299Q403 1274 403 1139L377 834Z" />
<glyph unicode="(" glyph-name="parenleft" horiz-adv-x="659" d="M555 -307Q508 -307 451 -274T333 -171T224 -10T143 213T111 487Q111 691 173 881T340 1190T561 1309H625Q460 1141 377 957T293 526Q293 258 374 56T614 -307H555Z" />
<glyph unicode=")" glyph-name="parenright" horiz-adv-x="659" d="M106 -307H47Q206 -146 287 56T369 526Q369 773 286 957T37 1309H100Q216 1309 321 1191T488 882T551 487Q551 344 520 213T438 -10T328 -171T211 -273T106 -307Z" />
<glyph unicode="*" glyph-name="asterisk" horiz-adv-x="956" d="M733 893Q619 893 553 877Q588 837 610 803Q654 730 690 698T778 651Q756 605 734 583T676 561Q640 561 614 577T570 624T540 686T511 762T479 836Q409 749 381 681T352 545Q283 549 247 577T211
655Q211 694 234 731T286 791T352 843T406 887Q338 915 291 924T186 934Q141 934 88 918Q93 987 125 1035T215 1083Q256 1083 288 1069T366 1021T444 969Q453 1032 453 1047Q453 1216 391 1292Q439 1309 465 1309Q525 1309 561 1281T598 1198Q598 1161 574 1088T539
967Q612 968 692 1018T813 1130Q868 1048 868 997Q868 945 830 919T733 893Z" />
<glyph unicode="+" glyph-name="plus" horiz-adv-x="1054" d="M852 455H584V39H537Q506 39 481 69T455 156V455H72V522Q72 548 93 570T150 592H455V967H518Q543 967 563 945T584 885V592H958V543Q958 510 931 483T852 455Z" />
<glyph unicode="," glyph-name="comma" horiz-adv-x="557" d="M170 -285V-272Q258 -181 258 -92Q258 -61 243 -35T208 8T174 51T158 106Q158 156 192 188T287 221Q342 221 381 170T420 18Q420 -112 353 -195T170 -285Z" />
<glyph unicode="-" glyph-name="hyphen" horiz-adv-x="665" d="M557 592Q557 548 531 518T465 487H111V543Q111 582 140 611T213 641H557V592Z" />
<glyph unicode="." glyph-name="period" horiz-adv-x="557" d="M408 127Q408 72 371 36T279 0Q223 0 185 36T147 127Q147 183 185 219T279 256Q333 256 370 220T408 127Z" />
<glyph unicode="/" glyph-name="slash" horiz-adv-x="905" d="M240 -18H182Q166 -18 147 0T127 49T145 123L678 1307H733Q759 1307 778 1288T797 1245Q797 1222 786 1204L240 -18Z" />
<glyph unicode="0" glyph-name="zero" horiz-adv-x="1056" d="M967 643Q967 308 851 144T518 -20Q332 -20 210 145T88 596Q88 916 200 1085T539 1255Q628 1255 703 1220T838 1113T933 921T967 643ZM803 592Q803 784 769 898T674 1056T518 1100Q398 1100 328 988T258
641Q258 506 280 406T340 248T426 164T528 137Q585 137 632 161T719 236T780 378T803 592Z" />
<glyph unicode="1" glyph-name="one" horiz-adv-x="686" d="M481 0H422Q372 0 343 30T313 123V1063L127 977Q107 967 80 967Q54 967 33 979T8 1012L-8 1073L180 1169Q248 1204 293 1220T385 1237Q423 1237 452 1212T481 1151V0Z" />
<glyph unicode="2" glyph-name="two" horiz-adv-x="1064" d="M926 94Q926 59 899 30T817 0H190Q153 0 131 21T109 72Q109 141 145 195T311 365L571 594Q657 669 692 731T727 866Q727 978 659 1040T461 1102Q236 1102 129 918H117V993Q117 1098 217 1176T496 1255Q666
1255 780 1151T895 895Q895 822 881 766T833 660T760 570T653 473L403 260Q331 198 299 154H926V94Z" />
<glyph unicode="3" glyph-name="three" horiz-adv-x="1064" d="M920 367Q920 187 809 85T473 -18Q323 -18 216 52T109 225V301H119Q245 135 485 135Q613 135 682 188T752 346T669 507T422 563Q338 563 338 643V690Q566 690 651 735T737 897Q737 1102 453 1102Q327
1102 243 1056T119 936H106V1008Q106 1047 131 1089T201 1168T320 1230T481 1255Q679 1255 792 1162T905 920Q905 688 647 637Q764 615 842 539T920 367Z" />
<glyph unicode="4" glyph-name="four" horiz-adv-x="1044" d="M999 393Q999 307 907 307H801V0H741Q693 0 663 28T633 115V307H195Q140 307 105 333T70 395Q70 441 80 467Q161 645 337 893T618 1237H688Q736 1237 768 1204T801 1100V446H999V393ZM633 446V1077Q556
986 424 786T223 446H633Z" />
<glyph unicode="5" glyph-name="five" horiz-adv-x="1067" d="M965 393Q965 201 845 92T514 -18Q358 -18 262 49T166 209V266H176Q288 135 524 135Q797 135 797 377Q797 501 724 553T485 606Q421 606 334 592T180 555V1065Q180 1156 220 1196T338 1237H909V1182Q909
1135 882 1109T801 1083H332V723Q453 750 539 750Q742 750 853 654T965 393Z" />
<glyph unicode="6" glyph-name="six" horiz-adv-x="1058" d="M973 397Q973 212 856 97T539 -18Q449 -18 373 17T237 122T143 305T109 565Q109 766 170 921T351 1166T629 1255Q764 1255 838 1197T913 1063V1010H903Q850 1059 791 1083T627 1108Q464 1108 369 981T274
598Q306 677 393 732T584 788Q761 788 867 680T973 397ZM807 377Q807 516 744 578T553 641Q490 641 437 621T351 568T300 499T281 426Q281 292 354 210T553 127Q676 127 741 196T807 377Z" />
<glyph unicode="7" glyph-name="seven" horiz-adv-x="1062" d="M938 1145Q938 1066 823 844L578 365Q508 232 508 74V0H440Q342 0 342 113Q342 182 366 264T426 412L678 881Q749 1014 766 1083H106V1137Q106 1183 131 1210T211 1237H831Q889 1237 913 1214T938 1145Z" />
<glyph unicode="8" glyph-name="eight" horiz-adv-x="1058" d="M977 356Q977 281 951 216T874 97T737 13T541 -18Q338 -18 227 82T115 334Q115 432 175 513T354 627Q131 699 131 891Q131 1050 242 1152T551 1255Q729 1255 843 1162T958 918Q958 801 900 736T727
641Q839 613 908 527T977 356ZM793 901Q793 994 727 1051T541 1108Q420 1108 359 1053T297 909Q297 812 364 757T553 702Q673 702 733 753T793 901ZM809 342Q809 439 743 500T539 561Q418 561 350 501T281 348Q281 251 354 193T551 135Q681 135 745 192T809 342Z"
/>
<glyph unicode="9" glyph-name="nine" horiz-adv-x="1056" d="M950 668Q950 315 841 149T494 -18Q336 -18 236 47T135 233V289H145Q254 131 496 131Q647 131 715 244T784 592Q744 517 668 474T498 430Q367 430 271 485T129 627T82 821Q82 1006 207 1130T516 1255Q596
1255 660 1236T780 1174T872 1064T929 897T950 668ZM782 797Q782 957 713 1031T504 1106Q382 1106 314 1033T246 844Q246 571 522 571Q644 571 713 639T782 797Z" />
<glyph unicode=":" glyph-name="colon" horiz-adv-x="557" d="M408 127Q408 72 371 36T279 0Q223 0 185 36T147 127Q147 183 185 219T279 256Q333 256 370 220T408 127ZM408 842Q408 787 371 751T279 715Q223 715 185 751T147 842Q147 898 185 934T279 971Q333
971 370 935T408 842Z" />
<glyph unicode=";" glyph-name="semicolon" horiz-adv-x="555" d="M168 -285V-272Q256 -181 256 -92Q256 -61 241 -35T206 8T172 51T156 106Q156 156 190 188T285 221Q340 221 379 170T418 18Q418 -112 351 -195T168 -285ZM408 842Q408 787 371 751T279 715Q223
715 185 751T147 842Q147 898 185 934T279 971Q333 971 370 935T408 842Z" />
<glyph unicode="&lt;" glyph-name="less" horiz-adv-x="1069" d="M782 791Q710 762 554 684T276 535Q411 452 586 357T885 203V170Q885 111 795 111Q731 111 497 243T111 496V537Q111 568 235 648T542 818T893 973V920Q893 876 869 847T782 791Z" />
<glyph unicode="=" glyph-name="equal" horiz-adv-x="1073" d="M844 662H176V727Q176 759 197 779T256 799H922V729Q922 701 899 682T844 662ZM844 274H176V340Q176 372 197 392T256 412H922V342Q922 314 899 294T844 274Z" />
<glyph unicode="&gt;" glyph-name="greater" horiz-adv-x="1069" d="M274 791Q212 817 188 846T164 920V973Q324 912 545 801T864 625Q909 596 927 576T946 537V496Q793 375 560 243T262 111Q172 111 172 170V203Q296 261 471 356T780 535Q660 605 504 683T274 791Z" />
<glyph unicode="?" glyph-name="question" horiz-adv-x="878" d="M623 952Q623 1033 563 1075T399 1118Q347 1118 303 1107T234 1085T179 1046T141 1007T109 965H98V1020Q98 1065 117 1107T173 1187T277 1247T430 1270Q601 1270 696 1185T791 973Q791 828 657
711L502 571Q473 546 462 514T451 428V375H389Q363 375 337 404T311 473Q311 531 337 580T397 659L530 778Q585 827 604 862T623 952ZM528 127Q528 72 492 36T399 0Q345 0 307 36T268 127Q268 183 306 219T399 256Q455 256 491 220T528 127Z" />
<glyph unicode="@" glyph-name="at" horiz-adv-x="1396" d="M973 289Q913 289 878 321T825 430Q794 355 739 322T602 289Q526 289 463 368T399 565Q399 737 504 856T766 975Q853 975 920 929T987 813Q987 784 966 666T944 508Q944 463 960 437T1006 410Q1073 410
1129 495T1186 733Q1186 924 1072 1043T752 1163Q647 1163 552 1122T385 1006T270 821T227 578Q227 351 356 221T690 90Q862 90 977 137V94Q977 70 964 52T918 17T819 -9T657 -18Q506 -18 381 50T178 253T100 563Q100 705 148 834T282 1061T495 1216T770 1274Q1009
1274 1161 1123T1313 739Q1313 537 1216 413T973 289ZM809 834T739 834T617 761T565 584Q565 506 590 471T655 436Q692 436 720 453T767 498T801 575T825 672T846 795Q809 834 739 834Z" />
<glyph unicode="A" glyph-name="A" horiz-adv-x="1093" d="M1063 0H1004Q904 0 889 88Q881 125 870 169T846 262T829 328H252Q205 154 176 0H113Q74 0 57 19T39 80Q39 168 107 398T280 878T475 1237H530Q580 1237 617 1205T696 1098Q790 931 905 604T1063 0ZM788
461Q689 812 539 1087Q388 821 289 461H788Z" />
<glyph unicode="B" glyph-name="B" horiz-adv-x="1138" d="M1026 365Q1026 196 911 94T618 -8H473Q154 -8 154 268V1194Q207 1213 298 1229T453 1245H616Q797 1245 899 1154T1001 922Q1001 822 953 753T782 647Q851 628 901 594T977 519T1014 440T1026 365ZM317
1077V709H569Q704 709 771 754T838 905Q838 1006 774 1052T580 1098H479Q401 1098 317 1077ZM580 571H317V274Q317 139 481 139H610Q726 139 792 194T858 354Q858 472 794 521T580 571Z" />
<glyph unicode="C" glyph-name="C" horiz-adv-x="1093" d="M1042 963H1028Q981 1034 900 1067T725 1100Q527 1100 404 974T281 649Q281 403 407 270T733 137Q925 137 1028 258H1038V207Q1038 114 947 48T700 -18Q539 -18 406 62T193 289T113 623Q113 746 154 859T271
1060T464 1202T723 1255Q867 1255 954 1183T1042 1026V963Z" />
<glyph unicode="D" glyph-name="D" horiz-adv-x="1247" d="M1135 631Q1135 346 980 169T580 -8H469Q316 -8 235 62T154 254V1210Q207 1223 289 1234T430 1245H584Q696 1245 796 1201T972 1079T1091 884T1135 631ZM967 606Q967 850 856 973T545 1096H473Q390 1096
319 1079V301Q319 217 363 178T496 139H561Q751 139 859 267T967 606Z" />
<glyph unicode="E" glyph-name="E" horiz-adv-x="1040" d="M965 129Q965 93 957 71T926 29T856 1T735 -8H582Q353 -8 243 121T133 506V729Q133 833 144 921T178 1082T240 1195T332 1237H977V1169Q977 1132 949 1108T856 1083H344Q299 916 299 707H836V655Q836
616 809 591T729 565H299V475Q299 289 376 215T639 141H733Q838 141 965 176V129Z" />
<glyph unicode="F" glyph-name="F" horiz-adv-x="909" d="M899 1165Q899 1134 874 1108T799 1081H334V725H815V672Q815 627 787 601T709 575H334V0H270Q216 0 190 24T164 100V1083Q164 1168 203 1202T344 1237H899V1165Z" />
<glyph unicode="G" glyph-name="G" horiz-adv-x="1241" d="M784 1255Q931 1255 1023 1187T1116 1030V971H1108Q1065 1029 978 1065T764 1102Q674 1102 594 1073T450 987T349 840T311 633Q311 506 347 409T448 253T595 165T774 135Q892 135 933 171T975 303V418Q975
485 967 559H1040Q1079 559 1103 534T1128 473V262Q1128 -18 743 -18Q624 -18 515 28T324 155T192 355T143 612Q143 750 185 867T307 1070T509 1206T784 1255Z" />
<glyph unicode="H" glyph-name="H" horiz-adv-x="1284" d="M1120 0H1065Q1022 0 988 32T954 121V569H332V0H270Q229 0 197 31T164 121V1237H254Q284 1237 308 1215T332 1153V723H954V1237H1034Q1069 1237 1094 1213T1120 1153V0Z" />
<glyph unicode="I" glyph-name="I" horiz-adv-x="518" d="M344 0H285Q234 0 204 30T174 121V1237H256Q290 1237 317 1213T344 1153V0Z" />
<glyph unicode="J" glyph-name="J" horiz-adv-x="733" d="M580 365Q580 182 487 82T221 -18Q133 -18 72 25T10 137V205H20Q44 178 100 158T217 137Q319 137 367 190T416 356V1237H473Q527 1237 553 1208T580 1128V365Z" />
<glyph unicode="K" glyph-name="K" horiz-adv-x="1060" d="M330 0H268Q224 0 194 31T164 117V1237H213Q270 1237 300 1207T330 1122V653Q354 686 424 781T530 923T625 1042T737 1171Q767 1204 809 1220T924 1237H1006V1227Q872 1111 589 750Q602 765 514 653Q571
574 690 425T870 211Q922 154 960 125T1061 72Q1044 42 1035 29T1004 4T952 -8Q907 -8 865 9T795 57Q694 167 549 347T330 633V0Z" />
<glyph unicode="L" glyph-name="L" horiz-adv-x="923" d="M920 125Q920 94 911 73T877 32T803 2T678 -8H575Q164 -8 164 434V1239H223Q276 1239 303 1211T330 1114V479Q330 376 341 315T385 215T470 161T610 147H678Q822 147 920 174V125Z" />
<glyph unicode="M" glyph-name="M" horiz-adv-x="1712" d="M1538 0H1477Q1421 0 1395 31T1368 133Q1368 298 1348 593T1300 1044Q1262 977 1192 770L999 215Q953 80 909 0H872Q851 0 832 11T788 54T732 154T668 326L514 793Q467 933 408 1042Q339 590 330 0H281Q233
0 200 35T166 133Q166 367 202 684T281 1237H342Q399 1237 445 1214T523 1148T575 1062T616 961L780 475Q839 296 854 227Q875 314 936 479L1096 924Q1130 1019 1177 1109T1253 1237H1296Q1378 1237 1419 1179T1473 1001Q1528 502 1538 0Z" />
<glyph unicode="N" glyph-name="N" horiz-adv-x="1282" d="M1118 0H1067Q974 0 896 69T725 326L463 854Q396 991 326 1061V0H256Q216 0 190 30T164 113V1239H244Q437 1239 561 991L821 461Q827 448 843 413T867 364T888 321T912 277T935 240T963 203V1237H1032Q1068
1237 1093 1212T1118 1149V0Z" />
<glyph unicode="O" glyph-name="O" horiz-adv-x="1345" d="M1233 635Q1233 444 1168 298T972 67T664 -18Q552 -18 452 25T277 146T159 342T115 604Q115 746 153 865T262 1071T441 1206T684 1255Q931 1255 1082 1083T1233 635ZM1067 604Q1067 854 969 978T664 1102Q483
1102 382 984T281 635Q281 393 383 264T684 135Q863 135 965 261T1067 604Z" />
<glyph unicode="P" glyph-name="P" horiz-adv-x="1021" d="M1001 866Q1001 692 880 578T580 463Q408 463 332 514V0H270Q221 0 193 27T164 109V1190Q220 1212 313 1228T479 1245H575Q764 1245 882 1144T1001 866ZM836 848Q836 1092 580 1092H483Q420 1092 332
1073V657Q423 608 580 608Q705 608 770 671T836 848Z" />
<glyph unicode="Q" glyph-name="Q" horiz-adv-x="1357" d="M1188 -174Q1046 -174 855 -123T524 0Q397 36 303 127T160 342T111 604Q111 717 133 814T201 993T314 1133T476 1223T688 1255Q937 1255 1086 1086T1235 635Q1235 511 1199 402T1103 215T963 89T797 31Q976
-32 1270 -43V-100Q1270 -131 1245 -152T1188 -174ZM1069 608Q1069 864 971 984T659 1104Q576 1104 509 1076T400 1003T329 895T288 769T276 635Q276 392 384 262T688 131Q859 131 964 261T1069 608Z" />
<glyph unicode="R" glyph-name="R" horiz-adv-x="1110" d="M1065 4Q1001 -6 977 -6Q879 -6 840 88L748 309Q720 376 695 418T644 480T595 508T541 518Q397 529 332 545V0H270Q164 0 164 106V1190Q220 1212 312 1228T477 1245H588Q776 1245 883 1156T991 907Q991
767 910 686T702 588Q738 576 768 555T815 517T851 467T875 423T895 377L1008 111Q1035 48 1065 12V4ZM823 883Q823 1100 575 1100H481Q406 1100 332 1079V684Q452 666 555 666Q607 666 652 678T737 714T800 782T823 883Z" />
<glyph unicode="S" glyph-name="S" horiz-adv-x="1077" d="M508 -18Q419 -18 334 13T192 102T135 227V307H145Q202 230 302 184T520 137Q672 137 736 189T801 340Q801 436 735 484T477 573Q289 615 204 684T119 883Q119 1045 246 1150T588 1255Q750 1255 846 1186T942
1026V950H932Q872 1026 789 1062T578 1098Q441 1098 367 1048T293 907Q293 847 317 812T403 751T592 696Q649 683 699 665T801 618T890 553T950 467T973 358Q973 195 853 89T508 -18Z" />
<glyph unicode="T" glyph-name="T" horiz-adv-x="954" d="M944 1176Q944 1147 915 1116T848 1085H557V0H496Q440 0 414 23T387 106V1085H10V1147Q10 1186 37 1212T117 1239H944V1176Z" />
<glyph unicode="U" glyph-name="U" horiz-adv-x="1275" d="M143 559V1237H203Q263 1237 287 1208T311 1106V573Q311 344 390 241T643 137Q818 137 892 235T967 559V1237H1030Q1133 1237 1133 1114V573Q1133 289 1004 136T633 -18Q390 -18 267 131T143 559Z" />
<glyph unicode="V" glyph-name="V" horiz-adv-x="1105" d="M1051 1118Q1000 866 859 515T612 -8H569Q511 -8 463 74Q316 318 208 629T47 1237H121Q157 1237 195 1210T242 1137Q284 926 373 655T563 203Q667 407 765 703T903 1237H983Q1013 1237 1034 1217T1055
1171Q1055 1156 1051 1118Z" />
<glyph unicode="W" glyph-name="W" horiz-adv-x="1751" d="M1645 1061Q1595 802 1499 523T1272 -8H1231Q1182 -8 1112 129T978 472T870 893Q818 642 727 376T569 -8H532Q502 -8 477 10T438 49Q172 574 78 1237H164Q204 1237 232 1205T268 1128Q347 649 522 233Q612
466 687 732T799 1196H846Q909 1196 935 1169T979 1057Q1018 866 1087 638T1235 233Q1330 465 1406 739T1507 1237H1591Q1620 1237 1639 1216T1659 1159Q1659 1138 1645 1061Z" />
<glyph unicode="X" glyph-name="X" horiz-adv-x="1181" d="M1016 -14Q946 -14 885 36T729 227L532 518Q221 176 215 0H147Q121 0 101 24T80 74Q80 125 90 167T150 288T291 469L451 647L270 909Q242 950 200 1009T136 1101T92 1171T61 1237H160Q177 1237 192 1232T233
1208T297 1145T381 1030L569 745Q728 916 804 1029T911 1237H969Q995 1237 1014 1214T1034 1153Q1034 1033 651 621L860 313Q970 153 1120 14Q1084 -14 1016 -14Z" />
<glyph unicode="Y" glyph-name="Y" horiz-adv-x="1011" d="M987 1169Q987 1113 844 878T596 518V0H535Q487 0 459 25T430 100V516Q315 671 203 871T31 1237H117Q203 1237 242 1147Q330 930 526 643Q620 777 713 943T854 1237H922Q987 1237 987 1169Z" />
<glyph unicode="Z" glyph-name="Z" horiz-adv-x="1095" d="M989 90Q989 51 960 26T883 0H227Q180 0 151 26T121 90Q121 151 163 225T315 440L668 885Q759 1002 780 1085H113V1120Q113 1180 142 1208T254 1237H895Q922 1237 948 1211T975 1145Q975 1038 817 838L471
395Q345 233 305 152H989V90Z" />
<glyph unicode="[" glyph-name="bracketleft" horiz-adv-x="606" d="M182 -309V1309H465Q512 1309 539 1283T567 1210V1180H336V-180H465Q512 -180 539 -206T567 -276V-309H182Z" />
<glyph unicode="\" glyph-name="backslash" horiz-adv-x="913" d="M782 0Q727 0 686 27T625 98L104 1237H164Q206 1237 243 1212T297 1153L821 0H782Z" />
<glyph unicode="]" glyph-name="bracketright" horiz-adv-x="604" d="M420 1309V-309H35V-276Q35 -232 62 -206T137 -180H266V1180H35V1210Q35 1257 62 1283T137 1309H420Z" />
<glyph unicode="^" glyph-name="asciicircum" horiz-adv-x="923" d="M631 834Q590 946 463 1159Q303 894 242 758H219Q178 758 160 775T141 815Q141 848 238 1020T430 1309H463Q517 1309 615 1144T799 754Q729 755 686 777T631 834Z" />
<glyph unicode="_" glyph-name="underscore" horiz-adv-x="1028" d="M1028 -518H0V-365H1028V-518Z" />
<glyph unicode="`" glyph-name="grave" horiz-adv-x="1026" d="M281 1286Q281 1378 381 1378Q526 1378 686 1124V1116H606Q487 1116 384 1167T281 1286Z" />
<glyph unicode="a" glyph-name="a" horiz-adv-x="970" d="M834 307Q834 157 746 70T471 -18Q324 -18 220 59T115 258Q115 408 227 487T549 567H674V610Q674 713 622 758T455 803Q354 803 278 769T160 676H150V752Q150 824 237 886T471 948Q648 948 741 858T834
598V307ZM676 319V434H549Q276 434 276 274Q276 212 332 171T477 129Q583 129 629 173T676 319Z" />
<glyph unicode="b" glyph-name="b" horiz-adv-x="1107" d="M995 481Q995 265 874 124T557 -18Q365 -18 254 109T143 444V1298H219Q254 1298 280 1271T307 1190V764Q345 849 425 898T604 948Q771 948 883 824T995 481ZM834 463Q834 641 760 721T561 801Q449 801
378 708T307 463Q307 294 379 213T578 131Q694 131 764 221T834 463Z" />
<glyph unicode="c" glyph-name="c" horiz-adv-x="940" d="M827 678H819Q795 729 724 765T582 801Q444 801 359 711T274 479Q274 392 302 323T375 214T475 152T586 131Q751 131 819 213H827V145Q827 121 813 95T768 42T683 -1T557 -18Q482 -18 405 14T262 105T155
255T113 455Q113 588 168 699T330 879T573 948Q683 948 755 895T827 745V678Z" />
<glyph unicode="d" glyph-name="d" horiz-adv-x="1103" d="M961 494Q961 226 860 104T539 -18Q425 -18 327 45T171 216T113 453Q113 691 219 819T520 948Q709 948 799 770V1298H842Q961 1298 961 1169V494ZM799 449Q799 504 792 551T767 645T718 726T639 780T524
801Q403 801 338 714T272 467Q272 325 351 228T553 131Q681 131 740 205T799 449Z" />
<glyph unicode="e" glyph-name="e" horiz-adv-x="1011" d="M899 625Q899 539 867 491T749 418T504 393H274Q286 274 364 202T571 129Q754 129 854 225H862V156Q862 79 781 31T549 -18Q358 -18 236 113T113 446Q113 669 236 808T547 948Q687 948 793 855T899 625ZM745
616Q745 697 690 752T530 807Q420 807 350 731T274 557L272 518L483 522Q596 524 651 533T726 561T745 616Z" />
<glyph unicode="f" glyph-name="f" horiz-adv-x="641" d="M641 1057H633Q578 1104 494 1104Q402 1104 362 1060T322 913V799H598V741Q598 706 571 682T494 657H319V0H262Q164 0 164 113V932Q164 1062 248 1157T471 1253Q550 1253 595 1218T641 1141V1057Z" />
<glyph unicode="g" glyph-name="g" horiz-adv-x="1044" d="M907 297Q907 274 911 212T915 133Q915 28 881 -54T787 -186T647 -263T475 -289Q358 -289 271 -237T184 -102V-39H197Q249 -88 317 -113T494 -139Q613 -139 688 -71T764 125Q764 136 759 178T754 246V293Q723
219 659 171T498 123Q330 123 221 223T111 494Q111 583 138 663T219 807T358 910T555 948Q717 948 812 847T907 553V297ZM754 514Q754 662 699 731T530 801Q413 801 342 720T270 528Q270 394 335 331T516 268Q626 268 690 337T754 514Z" />
<glyph unicode="h" glyph-name="h" horiz-adv-x="1077" d="M934 0H891Q829 0 802 24T774 102V543Q774 679 719 739T553 799Q462 799 391 729T319 535V0H274Q217 0 191 25T164 102V1298H211Q267 1298 295 1271T324 1180V784Q411 948 575 948Q747 948 840 850T934 549V0Z" />
<glyph unicode="i" glyph-name="i" horiz-adv-x="579" d="M367 1167Q367 1123 336 1092T260 1061Q217 1061 186 1092T154 1167Q154 1212 185 1245T260 1278Q304 1278 335 1245T367 1167ZM549 86Q549 42 524 17T457 -8Q178 -8 178 268V932H225Q270 932 303 899T336
807V291Q336 207 373 172T481 137H549V86Z" />
<glyph unicode="j" glyph-name="j" horiz-adv-x="569" d="M416 1167Q414 1122 384 1092T309 1061Q265 1061 233 1092T201 1167Q201 1212 233 1245T309 1278Q354 1278 385 1245T416 1167ZM385 -18Q385 -155 313 -234T106 -313Q47 -313 14 -289T-20 -233V-180L78
-172Q225 -159 225 -10V932H274Q336 932 360 904T385 807V-18Z" />
<glyph unicode="k" glyph-name="k" horiz-adv-x="894" d="M866 72Q860 50 856 39T840 16T810 -1T760 -6Q692 -6 639 47Q596 90 547 147T466 243T377 354T297 455V0H248Q143 0 143 125V1298H193Q297 1298 297 1194V522Q450 715 639 895Q653 909 685 919T760 930H870V922Q814
878 777 845T655 725T446 500Q589 305 700 188Q759 128 793 105T866 72Z" />
<glyph unicode="l" glyph-name="l" horiz-adv-x="583" d="M573 86Q573 -6 446 -6Q164 -6 164 270V1298H213Q262 1298 293 1267T324 1176V289Q324 206 362 173T471 139H573V86Z" />
<glyph unicode="m" glyph-name="m" horiz-adv-x="1597" d="M1456 0H1401Q1353 0 1325 30T1296 117V528Q1296 670 1246 734T1096 799Q981 799 930 737T879 532V0H825Q769 0 744 29T719 117V528Q719 655 664 727T510 799Q406 799 354 734T301 528V0H250Q199 0 170
30T141 117V549Q141 657 184 746T314 892T520 948Q720 948 809 780Q856 857 933 902T1102 948Q1276 948 1366 844T1456 532V0Z" />
<glyph unicode="n" glyph-name="n" horiz-adv-x="1056" d="M913 0H856Q758 0 758 102V530Q758 675 702 737T520 799Q301 799 301 530V0H242Q197 0 170 27T143 109V535Q143 728 250 838T539 948Q718 948 815 845T913 537V0Z" />
<glyph unicode="o" glyph-name="o" horiz-adv-x="1077" d="M963 483Q963 250 850 116T545 -18Q358 -18 236 112T113 449Q113 680 229 813T545 946Q730 946 846 818T963 483ZM801 446Q801 620 730 708T520 797Q408 797 340 712T272 481Q272 320 348 227T559 133Q674
133 737 219T801 446Z" />
<glyph unicode="p" glyph-name="p" horiz-adv-x="1103" d="M991 487Q991 254 873 118T573 -18Q493 -18 417 28T305 145V-297H248Q143 -297 143 -176V440Q143 681 257 814T590 948Q667 948 739 914T867 821T957 675T991 487ZM829 444Q829 626 756 712T555 799Q434
799 368 715T301 483Q301 309 378 220T590 131Q703 131 766 212T829 444Z" />
<glyph unicode="q" glyph-name="q" horiz-adv-x="1101" d="M963 -297H899Q852 -297 826 -267T799 -190V156Q769 82 691 32T518 -18Q439 -18 366 14T237 106T147 255T113 453Q113 664 241 806T563 948Q748 948 855 829T963 494V-297ZM801 471Q801 641 735 721T549
801Q422 801 347 708T272 463T348 221T537 131Q801 131 801 471Z" />
<glyph unicode="r" glyph-name="r" horiz-adv-x="657" d="M633 735H625Q570 782 481 782Q387 782 349 726T311 522V0H244Q202 0 178 29T154 106V535Q154 724 237 827T459 930Q548 930 590 897T633 811V735Z" />
<glyph unicode="s" glyph-name="s" horiz-adv-x="882" d="M774 283Q774 139 674 61T410 -18Q290 -18 210 33T129 168V236H137Q177 190 252 161T414 131Q516 131 564 164T612 266Q612 307 596 331T526 377T367 422Q231 451 171 502T111 655Q111 775 212 861T479
948Q589 948 670 901T752 772V702H743Q710 742 641 770T492 799Q378 799 324 764T270 668Q270 632 287 612T352 575T500 537Q774 476 774 283Z" />
<glyph unicode="t" glyph-name="t" horiz-adv-x="681" d="M319 1120V930H641V877Q641 832 610 807T518 782H322V319Q322 223 360 178T475 133Q581 133 623 158H631V102Q631 44 587 13T461 -18Q307 -18 236 62T164 305V911Q164 990 206 1055T301 1120H319Z" />
<glyph unicode="u" glyph-name="u" horiz-adv-x="1056" d="M913 399Q913 196 812 89T524 -18Q350 -18 247 97T143 414V932H193Q246 932 274 900T303 807V424Q303 284 366 209T535 133Q646 133 701 200T756 416V932H799Q913 932 913 807V399Z" />
<glyph unicode="v" glyph-name="v" horiz-adv-x="929" d="M866 737Q824 559 723 330T518 -18H475Q429 -18 395 29Q264 222 175 458T49 932H129Q207 932 223 842Q299 445 481 162Q575 305 655 541T762 932H817Q850 932 867 911T885 856Q885 816 866 737Z" />
<glyph unicode="w" glyph-name="w" horiz-adv-x="1452" d="M1391 852Q1378 643 1287 404T1081 -16Q1028 -16 1004 -7T963 31Q888 158 819 329T733 639Q707 492 627 288T475 -18H442Q389 -18 360 31Q246 229 167 463T57 932H141Q182 932 208 906T240 842Q292 497
436 201Q568 446 676 907H725Q767 907 794 882T831 813Q908 451 1040 201Q1112 337 1178 561T1255 932H1305Q1344 932 1367 911T1391 852Z" />
<glyph unicode="x" glyph-name="x" horiz-adv-x="905" d="M860 51V41Q859 40 851 30T839 16T825 5T805 -5T780 -8Q723 -8 690 11T602 98Q579 126 552 163T506 228T457 300T414 365Q365 311 341 283T280 202T224 101T201 0H129Q102 0 83 21T63 76Q63 124 85 177T154
290T236 390T334 494L57 918V932H152Q196 932 231 908T287 848Q305 816 444 596Q647 798 672 932H713Q746 932 767 907T788 840Q788 784 736 711T520 469L696 223Q791 90 860 51Z" />
<glyph unicode="y" glyph-name="y" horiz-adv-x="942" d="M874 762Q861 712 843 657T808 556T768 453T728 360T688 272T652 199T619 134T596 88Q485 -137 407 -222T229 -307Q178 -307 144 -283T109 -227V-168H184Q226 -168 253 -156T319 -95T412 53Q296 233 196
473T53 932H143Q218 932 242 838Q275 690 342 516T494 203Q572 336 653 559T758 932H821Q895 932 895 860Q895 823 874 762Z" />
<glyph unicode="z" glyph-name="z" horiz-adv-x="899" d="M817 86Q817 48 787 24T707 0H190Q146 0 117 24T88 88Q88 136 117 186T221 322L539 678Q604 758 614 786H82V842Q82 881 109 906T178 932H709Q751 932 778 910T805 844Q805 797 773 743T674 612L373 279Q315
212 279 145H817V86Z" />
<glyph unicode="{" glyph-name="braceleft" horiz-adv-x="686" d="M248 1032Q248 1156 322 1232T504 1309Q570 1309 600 1289T631 1225V1190Q578 1192 535 1192Q495 1192 468 1178T424 1142T400 1078T390 996T387 891Q387 856 391 809T395 729Q395 628 357 579T233
512V508Q395 472 395 274Q395 242 391 195T387 111Q387 -53 415 -120T535 -188H551Q580 -188 607 -215T635 -276V-309H506Q389 -309 319 -235T248 -29Q248 27 254 130T260 274Q260 340 228 384T135 438Q68 451 68 496V555L135 565Q202 575 231 620T260 723Q260
759 254 857T248 1032Z" />
<glyph unicode="|" glyph-name="bar" horiz-adv-x="514" d="M307 -309H268Q239 -309 216 -287T193 -227V1309H229Q259 1309 283 1290T307 1237V-309Z" />
<glyph unicode="}" glyph-name="braceright" horiz-adv-x="686" d="M440 1032Q440 955 434 857T428 723Q428 665 457 620T553 565L621 555V496Q621 451 553 438Q493 428 461 384T428 274Q428 234 434 131T440 -29Q440 -161 370 -235T182 -309H53V-276Q53 -243
80 -216T137 -188H154Q245 -188 273 -121T301 111Q301 147 297 194T293 274Q293 472 455 508V512Q370 530 332 579T293 729Q293 762 297 809T301 891Q301 955 299 995T288 1077T264 1141T221 1178T154 1192Q111 1192 57 1190V1225Q57 1269 87 1289T184 1309Q292
1309 366 1233T440 1032Z" />
<glyph unicode="~" glyph-name="asciitilde" horiz-adv-x="1112" d="M725 418Q675 418 613 449T494 510T395 541Q341 541 304 501T258 397H238Q216 397 192 417T168 481Q168 536 189 578T244 644T313 680T383 692Q424 692 470 672T552 629T633 585T719 565Q841
565 854 702H889Q910 702 928 682T946 618Q946 534 883 476T725 418Z" />
</font>
</defs>
</svg>
