<?xml version="1.0" standalone="no"?> <!DOCTYPE svg PUBLIC "-//W3C//DTD SVG 1.0//EN" "http://www.w3.org/TR/2001/REC-SVG-20010904/DTD/svg10.dtd" > <svg xmlns="http://www.w3.org/2000/svg" width="100%" height="100%">
<defs >
<font id="jalalltlight" horiz-adv-x="1055" ><font-face
    font-family="Jalal LT"
    units-per-em="2048"
    panose-1="1 0 4 0 0 0 0 0 0 0"
    ascent="1100"
    descent="-948"
    alphabetic="0" />
<missing-glyph horiz-adv-x="770" d="M770 1081V0H0V1081H770ZM695 76V1005H76V76H695ZM338 351L336 378Q336 480 368 523Q384 544 398 559T424 587Q449 612 464 630T486 661Q499 684 499 717Q499 773 464 808Q429 843 386 843Q338 843 304 809T260 700L186 711Q199
816 254 867T388 918Q470 918 522 866Q576 815 576 724Q576 671 557 634Q538 598 484 542Q426 490 417 460Q407 427 407 356L338 351ZM322 225Q322 247 338 263T375 279Q396 279 412 262T429 225Q429 203 413 188T375 172Q353 172 338 186T322 225Z" />
<glyph unicode=" " glyph-name="space" horiz-adv-x="342" />
<glyph unicode="!" glyph-name="exclam" horiz-adv-x="455" d="M213 821Q220 724 220 659Q220 500 147 324H119L0 1120Q98 1211 176 1298L213 821ZM295 106L168 -53L-2 80L125 240L295 106Z" />
<glyph unicode="&quot;" glyph-name="quotedbl" horiz-adv-x="755" d="M135 1207H313L255 681H178L135 1207ZM442 1207H621L563 681H487L442 1207Z" />
<glyph unicode="#" glyph-name="numbersign" horiz-adv-x="882" d="M316 459H526L566 685H357L316 459ZM631 340L568 0H441L503 340H294L232 0H104L167 340H-3V459H189L229 685H51V805H252L311 1136H438L379 805H589L648 1136H775L716 805H887V685H694L652 459H832V340H631Z"
/>
<glyph unicode="$" glyph-name="dollar" horiz-adv-x="882" d="M393 59V498Q265 552 246 559Q167 603 127 660Q78 733 78 836Q78 953 139 1039Q221 1153 393 1175V1285H473V1180H474Q597 1180 758 1110Q737 1065 704 949H680Q642 1089 473 1098V706Q589 662 607
652Q684 617 725 573Q810 481 810 349Q810 201 711 100T473 -15V-181H393V-24H376Q228 -24 59 63Q84 149 99 255H122Q175 132 255 86Q307 59 384 59H393ZM393 740V1091Q326 1074 291 1023Q258 978 258 922Q258 850 291 810Q319 774 393 740ZM473 464V75Q538 99
573 153T609 272Q609 401 473 464Z" />
<glyph unicode="%" glyph-name="percent" horiz-adv-x="1480" d="M378 1159Q509 1159 580 1085T652 879Q652 739 563 657Q487 589 383 589Q258 589 180 659Q94 733 94 867Q94 990 160 1070Q237 1159 378 1159ZM248 864Q248 645 379 645Q498 645 498 887Q498 1103
381 1103Q248 1103 248 864ZM1110 553Q1242 553 1314 479T1387 274Q1387 133 1296 51Q1219 -16 1116 -16Q991 -16 914 52Q826 127 826 261Q826 384 893 464Q969 553 1110 553ZM982 258Q982 39 1112 39Q1231 39 1231 281Q1231 497 1113 497Q982 497 982 258ZM1039
1184H1121L441 -36H359L1039 1184Z" />
<glyph unicode="&amp;" glyph-name="ampersand" horiz-adv-x="1228" d="M1065 652L1149 562Q1071 423 930 264Q1024 164 1163 24V0Q1011 10 1001 10Q964 10 893 3L791 122Q598 -24 426 -24Q311 -24 228 26Q184 51 148 100Q94 172 94 257Q94 487 390 612Q275 735
275 878Q275 988 356 1063T571 1139Q700 1139 762 1070Q811 1014 811 933Q811 791 595 660Q678 558 882 320Q1023 487 1050 649L1065 652ZM527 86Q638 86 742 180Q571 375 427 563Q282 461 282 323Q282 216 364 146Q437 86 527 86ZM441 939Q441 865 558 710Q706
820 706 936Q706 998 672 1039T577 1080Q519 1080 480 1039T441 939Z" />
<glyph unicode="&apos;" glyph-name="quotesingle" horiz-adv-x="441" d="M132 1207H310L252 681H175L132 1207Z" />
<glyph unicode="(" glyph-name="parenleft" horiz-adv-x="909" d="M715 -553L625 -713Q94 -324 94 301Q94 840 520 1358L565 1309Q197 820 197 356Q197 -184 715 -553Z" />
<glyph unicode=")" glyph-name="parenright" horiz-adv-x="909" d="M715 344Q715 -195 289 -713L244 -664Q612 -175 612 289Q612 829 94 1198L184 1358Q715 969 715 344Z" />
<glyph unicode="*" glyph-name="asterisk" horiz-adv-x="692" d="M394 1089L379 922Q461 978 573 1074Q591 1038 627 964Q559 943 401 872Q517 813 624 772Q592 719 568 671Q526 706 423 784L379 816Q387 728 401 578Q346 583 347 583Q349 583 293 578Q305 680
316 814Q243 765 124 672Q100 719 68 775Q229 840 289 872Q216 907 65 968Q99 1023 119 1074Q252 962 316 922Q310 1063 293 1172Q322 1167 349 1167Q376 1167 403 1172Q400 1146 394 1089Z" />
<glyph unicode="+" glyph-name="plus" horiz-adv-x="1117" d="M615 407V0H501V407H86V511H501V917H615V511H1029V407H615Z" />
<glyph unicode="," glyph-name="comma" horiz-adv-x="441" d="M272 42L45 -303L9 -286L113 110Q148 239 226 239Q261 239 287 217Q316 192 316 151Q316 110 272 42Z" />
<glyph unicode="-" glyph-name="hyphen" horiz-adv-x="692" d="M113 335Q122 408 122 433Q122 465 113 512Q184 507 325 507Q420 507 578 512Q570 443 570 424Q570 430 578 335Q542 335 459 337T333 340Q204 340 113 335Z" />
<glyph unicode="." glyph-name="period" horiz-adv-x="455" d="M289 123L152 -53L-41 96L96 272L289 123Z" />
<glyph unicode="/" glyph-name="slash" horiz-adv-x="982" d="M891 1498L272 -666H102L721 1498H891Z" />
<glyph unicode="0" glyph-name="zero" horiz-adv-x="882" d="M441 51Q563 51 585 274Q597 396 597 566Q597 762 583 865Q556 1077 442 1077Q337 1077 307 910Q286 800 286 600Q286 339 300 239Q314 149 335 112Q368 51 441 51ZM446 1149Q654 1149 745 961Q810
826 810 568Q810 287 714 132T438 -23Q73 -23 73 559Q73 825 146 964Q243 1149 446 1149Z" />
<glyph unicode="1" glyph-name="one" horiz-adv-x="882" d="M103 897V912Q213 953 442 1063Q529 1104 624 1167L643 1156Q624 997 624 444Q624 168 636 0L589 5Q552 10 527 10Q505 10 464 5Q416 0 408 0Q429 195 429 648V962Q311 887 175 819Q158 837 103 897Z" />
<glyph unicode="2" glyph-name="two" horiz-adv-x="882" d="M51 0V59Q261 249 387 410Q536 604 536 805Q536 1063 357 1063Q275 1063 222 1000Q177 946 167 834L153 823L52 923Q151 1148 401 1148Q542 1148 638 1084Q755 1001 755 843Q755 740 718 661T578 468Q532
417 416 303T278 174Q717 174 801 185Q793 143 793 86Q793 44 800 0Q558 10 426 10Q214 10 51 0Z" />
<glyph unicode="3" glyph-name="three" horiz-adv-x="882" d="M160 865H143Q119 907 55 980Q157 1143 393 1143Q545 1143 636 1080T728 893Q728 681 487 612Q481 610 481 606Q481 600 491 600Q782 581 782 326Q782 160 638 65Q510 -19 335 -19Q153 -19 35 91Q68
141 109 229H127Q135 180 180 130Q246 58 351 58Q448 58 507 128T566 322Q566 419 521 482Q464 553 361 553Q349 553 268 539Q275 559 275 588Q275 624 268 649Q300 638 328 638Q419 638 471 696T524 862Q524 1065 346 1065Q185 1065 160 865Z" />
<glyph unicode="4" glyph-name="four" horiz-adv-x="882" d="M201 630L446 976Q488 1036 553 1136Q591 1126 627 1126Q662 1126 703 1136Q692 912 692 437Q746 437 837 441Q828 401 828 362Q828 326 837 291Q698 295 692 296Q692 91 701 0Q623 10 606 10Q607 10
490 0Q503 86 503 296Q376 297 201 297Q126 297 41 294V396Q41 405 81 461T201 630ZM503 437V922L164 437H503Z" />
<glyph unicode="5" glyph-name="five" horiz-adv-x="882" d="M112 233H130Q167 145 213 107Q268 62 357 62Q446 62 505 136T565 339Q565 451 513 521Q458 597 351 597Q279 597 178 536L158 553Q164 675 164 796Q164 997 146 1121L154 1136Q308 1126 455 1126Q563
1126 733 1136Q725 1074 725 1050Q725 1042 733 958Q703 961 606 961H249Q246 917 246 789V719Q245 672 245 646Q343 680 423 680Q581 680 677 604Q781 523 781 370Q781 185 642 78Q517 -15 335 -15Q153 -15 39 95Q92 181 112 233Z" />
<glyph unicode="6" glyph-name="six" horiz-adv-x="882" d="M448 51Q612 51 612 337Q612 604 446 604Q287 604 287 329Q287 51 448 51ZM563 1143Q595 1143 660 1136Q665 1116 684 1063L675 1058Q648 1068 607 1068Q325 1068 284 591Q365 687 498 687Q638 687 726
606Q825 516 825 349Q825 164 700 63Q595 -21 458 -21Q255 -21 157 132Q73 258 73 474Q73 774 207 958T563 1143Z" />
<glyph unicode="7" glyph-name="seven" horiz-adv-x="882" d="M862 1123V1082Q846 1062 719 842Q607 645 562 559Q462 376 265 0Q207 10 174 10Q154 10 91 0L86 12L130 73Q201 177 405 512Q604 839 659 943H426Q296 943 97 930Q106 984 106 1026Q106 1042 97 1136Q222
1123 862 1123Z" />
<glyph unicode="8" glyph-name="eight" horiz-adv-x="882" d="M442 598Q354 598 314 497Q287 427 287 325Q287 52 441 52Q595 52 595 325Q595 598 442 598ZM441 1068Q313 1068 313 875Q313 672 442 672Q570 672 570 865Q570 1068 441 1068ZM323 633V642Q237 657
181 713Q116 775 116 875Q116 1009 210 1078Q294 1143 442 1143Q578 1143 665 1084Q769 1012 769 875Q769 696 563 645V638Q701 603 758 527Q811 459 811 335Q811 153 687 58Q588 -21 448 -21Q274 -21 175 65Q70 154 70 323Q70 559 323 633Z" />
<glyph unicode="9" glyph-name="nine" horiz-adv-x="882" d="M429 1142Q630 1142 728 980Q808 849 808 633Q808 408 726 239Q603 -21 323 -21Q245 -21 174 15Q160 80 138 138L158 141Q237 63 346 63Q495 63 558 255Q595 370 595 524Q524 435 370 435Q279 435 200
484Q58 568 58 771Q58 943 156 1042T429 1142ZM429 516Q592 516 592 801Q592 1074 427 1074Q333 1074 293 964Q265 893 265 800Q265 516 429 516Z" />
<glyph unicode=":" glyph-name="colon" horiz-adv-x="455" d="M252 553L125 393L-45 526L82 686L252 553ZM295 106L168 -53L-2 80L125 240L295 106Z" />
<glyph unicode=";" glyph-name="semicolon" horiz-adv-x="473" d="M289 42L63 -303L26 -286L133 110Q167 239 245 239Q281 239 308 216T335 151Q335 112 289 42ZM116 663Q116 713 150 748T237 784Q286 784 321 749T357 663Q357 616 322 579T237 542Q185 542 151
577T116 663Z" />
<glyph unicode="&lt;" glyph-name="less" horiz-adv-x="1117" d="M88 399V512L1029 890V776L221 456L1029 140V27L88 399Z" />
<glyph unicode="=" glyph-name="equal" horiz-adv-x="1117" d="M86 582V684H1029V582H86ZM86 232V331H1029V232H86Z" />
<glyph unicode="&gt;" glyph-name="greater" horiz-adv-x="1117" d="M88 27V140L897 456L88 776V890L1029 512V399L88 27Z" />
<glyph unicode="?" glyph-name="question" horiz-adv-x="630" d="M441 414L422 351Q381 333 329 333Q226 333 171 387T116 527Q116 578 133 617Q164 684 255 775L314 836Q379 900 379 966Q379 1091 235 1091Q145 1091 99 1000H83L71 1101Q171 1165 279 1165Q400
1165 482 1098T565 930Q565 847 521 778Q494 737 410 649Q370 609 329 570Q282 513 282 471Q282 437 305 415T362 393Q390 393 437 417L441 414ZM149 117Q149 167 184 203T271 239Q320 239 355 203T391 117Q391 70 356 34T271 -3Q219 -3 184 32T149 117Z" />
<glyph unicode="@" glyph-name="at" horiz-adv-x="1361" d="M1136 167L1163 121Q946 -35 657 -35Q411 -35 248 109Q67 265 67 541Q67 822 261 1003T748 1184Q991 1184 1143 1045T1295 692Q1295 507 1196 374T958 240Q808 240 796 375Q730 240 594 240Q495 240
438 302T381 481Q381 617 482 742Q589 873 725 873Q858 873 882 768L908 854H1030Q903 438 903 383Q903 300 980 300Q1074 303 1152 420T1230 689Q1230 882 1096 1003T748 1124Q512 1124 350 949T187 539Q187 311 329 169T703 26Q935 26 1136 167ZM513 437Q513
300 621 300Q704 300 755 406Q784 465 811 562Q842 663 842 713Q842 758 815 784T750 811Q659 811 583 675Q513 552 513 437Z" />
<glyph unicode="A" glyph-name="A" horiz-adv-x="1103" d="M850 0L779 189L707 368Q562 376 490 376Q422 376 286 368Q185 127 149 0Q83 10 68 10Q63 10 -9 0L189 438Q456 1032 500 1184Q530 1175 556 1175Q580 1175 610 1184Q700 932 855 570Q1007 219 1109 0Q974
9 973 10Q947 10 907 5Q858 0 850 0ZM659 474L498 893L325 474Q346 474 414 471Q468 468 502 468Q553 468 659 474Z" />
<glyph unicode="B" glyph-name="B" horiz-adv-x="1009" d="M929 323Q929 195 826 98T519 0Q484 0 412 4T305 9Q274 9 222 5Q164 0 141 0Q153 275 153 604Q153 953 139 1167Q175 1163 287 1159Q308 1159 408 1163T524 1167Q879 1167 879 893Q879 784 787 710Q710
645 592 627Q752 612 829 553Q929 477 929 323ZM359 578V237Q359 190 362 95Q430 84 455 84Q704 84 704 329Q704 470 627 530Q559 583 420 583Q393 583 359 578ZM359 939V665Q406 662 429 662Q660 662 660 888Q660 976 613 1029T481 1082Q422 1082 362 1077Q359
985 359 939Z" />
<glyph unicode="C" glyph-name="C" horiz-adv-x="1198" d="M1148 1095L1097 929H1080Q1000 1089 755 1089Q544 1089 432 956T320 580Q320 361 423 225Q541 70 732 70Q959 70 1124 264L1143 252L1124 83Q930 -24 694 -24Q433 -24 265 127Q86 287 86 565Q86 837
248 1000Q423 1180 750 1180Q959 1180 1148 1095Z" />
<glyph unicode="D" glyph-name="D" horiz-adv-x="1323" d="M1237 617Q1237 258 984 97Q832 0 613 0Q563 0 459 4T300 9Q274 9 141 0L151 311Q153 364 153 626Q153 905 141 1167Q257 1159 281 1159Q325 1159 424 1163T575 1167Q891 1167 1041 1050Q1237 896 1237
617ZM362 862V335Q362 294 370 99Q558 91 603 91Q735 91 846 187Q1003 325 1003 610Q1003 805 908 926Q789 1077 545 1077Q468 1077 370 1068Q362 897 362 862Z" />
<glyph unicode="E" glyph-name="E" horiz-adv-x="850" d="M365 1062V662Q627 662 733 674Q725 643 725 612Q725 575 733 555Q578 566 365 566V106Q519 106 772 117Q765 99 765 62Q765 24 772 0Q619 10 459 10Q305 10 141 0Q146 121 149 213Q157 438 157 597Q157
947 141 1167Q308 1157 449 1157Q494 1157 589 1160Q717 1165 762 1167Q754 1133 754 1112Q754 1071 762 1050L603 1058Q538 1062 365 1062Z" />
<glyph unicode="F" glyph-name="F" horiz-adv-x="850" d="M375 1062V665H491Q591 665 765 674Q755 645 755 617Q755 597 765 559L671 563Q577 566 375 566L376 89Q378 63 383 0Q335 10 260 10Q200 10 149 0Q165 322 165 603Q165 840 148 1167Q326 1157 470 1157Q510
1157 791 1167Q782 1128 782 1103Q782 1074 791 1047Q562 1062 375 1062Z" />
<glyph unicode="G" glyph-name="G" horiz-adv-x="1323" d="M86 565Q86 837 248 1000Q423 1180 750 1180Q959 1180 1148 1095L1097 929H1080Q1000 1089 755 1089Q544 1089 432 956T320 580Q320 359 423 225Q542 70 732 70Q879 70 973 132Q978 249 978 286Q978 368
968 536Q1055 524 1089 524Q1133 524 1196 536Q1182 455 1182 249Q1182 167 1188 95Q962 -24 694 -24Q433 -24 265 127Q86 287 86 565Z" />
<glyph unicode="H" glyph-name="H" horiz-adv-x="1291" d="M927 299L929 573Q745 580 652 580Q556 580 362 573V403Q362 192 378 0Q376 0 326 5Q289 10 260 10Q261 10 139 0Q154 291 154 774Q154 980 138 1167Q240 1157 260 1157Q311 1157 378 1167Q362 998 362
681Q532 675 619 675Q721 675 929 681Q929 784 926 975Q923 1027 917 1167Q1014 1157 1041 1157Q1063 1157 1160 1167Q1136 976 1136 401Q1136 122 1153 0Q1030 10 1029 10Q1021 10 914 0Q920 119 927 299Z" />
<glyph unicode="I" glyph-name="I" horiz-adv-x="536" d="M165 774Q165 1001 148 1167Q245 1157 269 1157Q308 1157 390 1167Q370 1041 370 575Q370 172 388 0Q370 0 331 5T269 10Q248 10 207 5Q162 0 146 0Q165 203 165 774Z" />
<glyph unicode="J" glyph-name="J" horiz-adv-x="536" d="M-12 -254L-24 -172Q116 -154 153 -63Q178 3 178 240V865Q178 987 165 1167Q245 1157 287 1157Q325 1157 405 1167L391 854V594Q390 376 390 308Q390 299 391 254V192Q391 -92 239 -184Q148 -239 -12 -254Z" />
<glyph unicode="K" glyph-name="K" horiz-adv-x="1103" d="M151 774Q151 976 136 1167Q254 1157 255 1157Q296 1157 375 1167Q365 1106 361 897Q359 825 359 627Q498 750 649 915Q733 1005 867 1167Q896 1157 947 1157Q1000 1157 1062 1167Q955 1077 784 910Q728
855 548 665L638 545Q968 110 1089 0Q1009 10 936 10Q941 10 793 0Q669 175 598 268Q477 423 359 556Q359 180 375 0Q367 0 320 5Q279 10 255 10Q235 10 195 5Q151 0 136 0Q151 287 151 774Z" />
<glyph unicode="L" glyph-name="L" horiz-adv-x="850" d="M158 464V703Q158 805 153 946Q151 1041 146 1167Q198 1157 264 1157Q320 1157 383 1167Q365 800 365 433Q365 391 370 110H401Q696 110 796 126Q787 95 787 58Q787 27 796 0Q536 10 471 10Q333 10 146
0Q146 12 152 226T158 464Z" />
<glyph unicode="M" glyph-name="M" horiz-adv-x="1543" d="M311 1167L364 1059Q510 760 685 451L778 287L840 397Q1036 742 1248 1167Q1268 1162 1285 1162Q1305 1162 1322 1167L1336 1026Q1364 732 1404 433Q1446 117 1472 0Q1390 10 1349 10Q1313 10 1233 0L1228
63Q1220 154 1213 279L1159 772Q891 319 754 0Q730 3 719 3Q707 3 687 0Q635 100 453 448Q379 580 282 755Q226 313 211 0Q165 10 133 10Q106 10 62 0L71 52Q100 206 162 616Q219 1014 235 1167Q255 1162 274 1162Q275 1162 311 1167Z" />
<glyph unicode="N" glyph-name="N" horiz-adv-x="1291" d="M153 458V689Q153 850 149 1167Q177 1163 190 1163Q203 1163 229 1167Q455 919 748 630L949 432Q971 411 1034 359V737Q1034 927 1014 1167Q1055 1157 1088 1157Q1118 1157 1159 1167Q1139 915 1139 592Q1139
541 1142 373V160Q1142 141 1143 78V-9Q1120 -5 1109 -5Q1097 -5 1074 -9Q660 441 258 808Q258 552 264 272Q265 178 279 0Q274 0 245 5T203 10Q175 10 135 0L148 237Q153 325 153 458Z" />
<glyph unicode="O" glyph-name="O" horiz-adv-x="1449" d="M323 578Q323 364 416 226Q521 63 725 63Q926 63 1034 229Q1126 370 1126 578Q1126 808 1038 941Q933 1094 725 1094Q524 1094 416 923Q323 781 323 578ZM730 1180Q991 1180 1163 1042Q1359 887 1359
598Q1359 316 1184 146T725 -24Q449 -24 275 127Q91 287 91 558Q91 865 281 1030Q453 1180 730 1180Z" />
<glyph unicode="P" glyph-name="P" horiz-adv-x="976" d="M370 523V268Q370 132 383 0Q325 10 264 10Q203 10 146 0Q158 181 158 245L162 662Q164 832 158 953L149 1167Q248 1159 320 1159Q339 1159 436 1163T552 1167Q713 1167 801 1103Q917 1017 917 862Q917
719 825 627Q713 516 488 516Q449 516 370 523ZM370 1077V606Q432 598 461 598Q588 598 651 692Q698 760 698 852Q698 958 645 1021T490 1084Q449 1084 370 1077Z" />
<glyph unicode="Q" glyph-name="Q" horiz-adv-x="1449" d="M1167 -326L778 -23Q758 -24 721 -24Q420 -24 249 148Q86 313 86 558Q86 865 278 1030Q449 1180 726 1180Q988 1180 1160 1042Q1355 887 1355 598Q1355 387 1252 234T971 16L1355 -221Q1252 -268 1167
-326ZM320 550Q320 370 405 237Q513 63 725 63Q923 63 1036 235Q1123 367 1123 616Q1123 819 1027 947Q920 1094 723 1094Q563 1094 456 984Q320 840 320 550Z" />
<glyph unicode="R" glyph-name="R" horiz-adv-x="1071" d="M649 578L698 510Q730 464 786 383Q933 175 1074 0Q978 10 922 10Q861 10 784 0Q752 51 696 141Q597 293 411 555H370V313Q370 287 374 155T378 0Q275 10 264 10Q221 10 146 0Q162 378 162 701Q162 947
149 1167Q248 1159 320 1159Q342 1159 461 1163T600 1167Q781 1167 867 1084Q946 1009 946 893Q946 760 855 675Q778 603 649 578ZM370 1075V635Q468 630 488 630Q606 630 669 706Q721 769 721 864Q721 988 649 1041Q592 1084 491 1084Q491 1083 370 1075Z" />
<glyph unicode="S" glyph-name="S" horiz-adv-x="914" d="M117 255H141Q195 138 265 94Q319 59 405 59Q505 59 566 118T627 272Q627 408 488 468Q423 494 313 539Q192 592 146 662T99 840Q99 976 181 1066Q286 1180 495 1180Q623 1180 778 1110Q743 1026 725 949H701Q681
1021 622 1059T477 1097Q381 1097 330 1046T278 914Q278 828 340 781Q379 750 513 698Q626 654 660 636Q711 610 745 573Q828 484 828 349Q828 201 730 97Q612 -24 396 -24Q252 -24 78 63Q106 148 117 255Z" />
<glyph unicode="T" glyph-name="T" horiz-adv-x="946" d="M580 862V233Q580 110 592 0Q494 10 468 10Q444 10 352 0Q368 332 368 390L367 864Q367 920 364 1053H279Q135 1053 13 1041Q23 1075 23 1104Q23 1133 13 1167Q175 1157 468 1157Q726 1157 922 1167Q914
1120 914 1103Q914 1088 922 1041Q805 1053 583 1053Q580 930 580 862Z" />
<glyph unicode="U" glyph-name="U" horiz-adv-x="1228" d="M359 1167L354 1038Q349 908 349 598Q349 388 357 323Q365 248 401 201Q477 97 662 97Q765 97 841 145T946 272Q968 333 968 502Q968 919 953 1167Q1024 1157 1029 1157Q1032 1157 1109 1167L1104 1085Q1097
976 1088 417Q1084 272 1041 187Q1001 109 914 52Q800 -21 627 -21Q444 -21 322 44Q167 127 141 308Q138 332 138 397V861Q138 1023 130 1167Q207 1157 248 1157Q291 1157 359 1167Z" />
<glyph unicode="V" glyph-name="V" horiz-adv-x="1071" d="M594 278L659 437Q859 932 930 1167Q987 1157 1009 1157Q1034 1157 1091 1167Q1001 990 847 626Q714 314 604 0Q563 10 541 10Q510 10 462 0Q394 192 376 242Q340 337 260 529Q192 694 104 912Q56 1023
-6 1167Q42 1157 132 1157Q172 1157 257 1167Q320 951 476 548L594 278Z" />
<glyph unicode="W" glyph-name="W" horiz-adv-x="1701" d="M507 397L539 303L581 414Q613 500 694 730Q798 1034 829 1167Q896 1157 905 1157Q932 1157 980 1167Q1032 995 1112 742Q1182 530 1269 297Q1326 448 1408 692Q1464 858 1550 1167Q1588 1157 1628 1157Q1666
1157 1704 1167Q1562 810 1452 495Q1355 225 1284 0Q1238 9 1219 10Q1224 9 1143 0Q1074 225 1047 305Q991 462 920 675Q894 746 850 872L800 730Q737 556 638 268Q626 233 555 0Q512 10 490 10Q468 10 420 0L378 130Q269 459 187 690Q109 912 12 1167Q113 1157
145 1157Q201 1157 264 1167Q325 936 507 397Z" />
<glyph unicode="X" glyph-name="X" horiz-adv-x="1039" d="M610 638Q834 246 1005 0Q876 10 858 10Q814 10 726 0L651 153Q612 235 485 458L397 335Q359 279 193 0Q122 10 106 10Q77 10 26 0L195 235Q226 278 279 352L426 558Q365 665 243 867L52 1167Q130 1157
190 1157Q243 1157 325 1167Q444 908 552 737Q609 825 685 944Q730 1020 816 1167Q875 1157 908 1157L990 1167Q842 975 610 638Z" />
<glyph unicode="Y" glyph-name="Y" horiz-adv-x="1009" d="M607 456V393Q607 278 619 0L502 10Q485 10 388 0Q397 265 397 461L297 635Q181 826 -23 1167Q73 1157 117 1157Q198 1157 257 1167Q403 858 555 592Q703 847 849 1167Q903 1157 947 1157Q991 1157 1020
1167Q1000 1133 843 882Q772 757 630 510Q607 473 607 456Z" />
<glyph unicode="Z" glyph-name="Z" horiz-adv-x="1039" d="M13 0V55Q119 195 257 387Q553 822 687 1053Q314 1053 84 1034Q91 1095 91 1101Q91 1135 84 1167Q198 1157 542 1157Q862 1157 1001 1167Q1005 1143 1005 1138Q1005 1124 982 1092L894 971Q832 882 660
626L510 401Q388 219 326 113H490Q665 113 805 126Q858 132 998 138Q990 86 990 68Q990 29 998 0Q692 10 505 10Q185 10 13 0Z" />
<glyph unicode="[" glyph-name="bracketleft" horiz-adv-x="909" d="M647 -754H123V1384H647V1253H311V-623H647V-754Z" />
<glyph unicode="\" glyph-name="backslash" horiz-adv-x="982" d="M891 -666H721L102 1498H272L891 -666Z" />
<glyph unicode="]" glyph-name="bracketright" horiz-adv-x="909" d="M647 -754H123V-623H459V1253H123V1384H647V-754Z" />
<glyph unicode="^" glyph-name="asciicircum" horiz-adv-x="1135" d="M177 430L507 1136H630L959 430H832L568 1001L305 430H177Z" />
<glyph unicode="_" glyph-name="underscore" horiz-adv-x="850" d="M0 -213V-127H850V-213H0Z" />
<glyph unicode="`" glyph-name="grave" horiz-adv-x="441" d="M113 1213L354 955H268L-10 1126Q-45 1148 -45 1189Q-45 1220 -20 1239T29 1259Q71 1259 113 1213Z" />
<glyph unicode="a" glyph-name="a" horiz-adv-x="850" d="M335 449L393 464Q429 473 462 482Q513 498 521 524Q523 532 523 545Q523 726 357 726Q204 726 174 606Q157 609 148 609Q138 609 121 606Q130 660 130 689Q130 719 127 735Q213 786 257 804Q323 829 397
829Q541 829 624 765T707 575Q707 542 705 427T703 284Q703 151 711 117Q721 77 762 77Q779 77 810 91Q804 70 804 59Q804 49 810 29Q713 -9 665 -9Q597 -9 565 24Q544 42 524 95Q437 -21 296 -21Q167 -21 106 58Q62 113 62 187Q62 314 139 373Q187 410 335 449ZM517
245V422Q354 379 313 352Q254 314 254 229Q254 162 284 123T365 83Q433 83 475 130T517 245Z" />
<glyph unicode="b" glyph-name="b" horiz-adv-x="1009" d="M927 427Q927 245 826 117Q717 -21 539 -21Q362 -21 274 99Q221 63 167 0H109Q126 286 126 613Q126 917 106 1260Q157 1250 219 1250Q265 1250 323 1260Q313 1080 310 685Q416 829 570 829Q713 829 811
735Q927 624 927 427ZM509 58Q716 58 716 410Q716 726 512 726Q307 726 307 393Q307 58 509 58Z" />
<glyph unicode="c" glyph-name="c" horiz-adv-x="819" d="M758 175L786 160Q768 133 752 41Q636 -21 502 -21Q303 -21 185 110Q78 228 78 394Q78 577 187 696Q308 829 524 829Q643 829 784 771Q755 717 745 610H713Q706 648 677 684Q624 752 532 752Q417 752 351
652Q297 575 297 423Q297 278 351 187Q416 75 552 75Q617 75 669 104Q698 121 758 175Z" />
<glyph unicode="d" glyph-name="d" horiz-adv-x="1009" d="M703 0L707 117Q610 -24 449 -24Q284 -24 181 96T77 391Q77 597 189 714Q293 825 458 825Q542 825 606 791Q645 769 701 713Q701 1091 680 1260Q737 1250 801 1250Q855 1250 897 1260Q879 943 879 651Q879
124 897 0Q847 10 801 10Q784 10 703 0ZM490 78Q588 78 644 162T701 410Q701 735 497 735Q383 735 329 630Q289 548 289 426Q289 78 490 78Z" />
<glyph unicode="e" glyph-name="e" horiz-adv-x="914" d="M839 401H281Q281 80 552 80Q610 80 681 109T793 187L811 175Q807 164 798 139L782 67Q765 45 696 19Q603 -21 497 -21Q299 -21 187 93T75 417Q75 616 198 728Q307 828 470 828Q704 828 789 674Q846 571
839 401ZM284 485H643Q643 760 473 760Q299 760 284 485Z" />
<glyph unicode="f" glyph-name="f" horiz-adv-x="536" d="M552 1089L539 1078Q488 1112 414 1112Q299 1112 299 1003Q299 956 347 804Q444 804 464 805L527 810Q521 782 521 765Q521 742 527 717Q498 723 351 723V630Q351 184 367 0Q271 10 260 10Q237 10 149
0Q160 65 162 172L167 471Q167 654 164 723H109Q97 723 36 717Q41 741 41 762Q40 759 36 810Q48 808 165 804Q177 914 187 953Q203 1020 240 1085Q346 1271 512 1271Q526 1271 563 1264Q550 1227 550 1178Q550 1113 552 1089Z" />
<glyph unicode="g" glyph-name="g" horiz-adv-x="882" d="M737 721L674 725Q755 646 755 539Q755 448 700 384Q627 303 476 291Q411 289 326 284Q264 274 264 213Q264 138 365 130Q476 130 626 122Q733 109 779 63Q840 2 840 -91Q840 -248 713 -352Q591 -449 417
-449Q257 -449 154 -391Q45 -328 45 -216Q45 -56 187 -15L228 -3Q109 36 109 132Q109 260 261 310Q73 381 73 548Q73 680 168 755Q257 826 403 826Q446 826 526 814Q630 800 704 800Q800 800 839 808Q834 782 834 765Q834 733 839 713Q774 719 737 721ZM420 -370Q524
-370 597 -323Q684 -268 684 -168Q684 -19 430 -19Q296 -19 243 -62T189 -178Q189 -275 257 -326Q316 -370 420 -370ZM417 346Q481 346 520 400T559 562Q559 760 417 760Q271 760 271 542Q271 346 417 346Z" />
<glyph unicode="h" glyph-name="h" horiz-adv-x="976" d="M329 1260L326 1206Q314 1016 314 685Q414 825 580 825Q743 825 816 711Q855 649 855 503Q855 487 854 418T852 320Q852 136 862 0Q811 10 757 10Q735 10 696 5Q645 0 643 0Q662 175 662 355Q662 553 649
597Q623 703 503 703Q370 703 335 592Q314 529 314 393Q314 153 323 0Q255 10 216 10Q214 10 112 0L113 32Q127 271 126 667L124 998Q124 1055 112 1260Q164 1250 228 1250Q282 1250 329 1260Z" />
<glyph unicode="i" glyph-name="i" horiz-adv-x="441" d="M112 0L121 184Q126 294 126 394Q126 646 109 816Q177 807 222 807Q274 807 328 816L325 740Q314 510 314 449Q314 384 320 139Q320 130 323 70T326 0Q261 10 228 10Q190 10 112 0ZM217 973Q172 973 136
1007T100 1091Q100 1138 135 1174T217 1210Q265 1210 301 1174T337 1091Q337 1042 301 1008T217 973Z" />
<glyph unicode="j" glyph-name="j" horiz-adv-x="441" d="M-15 -448L-35 -383Q65 -361 97 -311Q141 -243 141 -44Q141 59 140 267T138 539T126 816Q177 807 237 807Q286 807 347 816Q333 612 333 423Q333 361 335 233T337 39Q337 -124 323 -201Q300 -323 178 -388Q110
-423 -15 -448ZM237 973Q190 973 154 1007T117 1091Q117 1138 153 1174T237 1210Q284 1210 319 1174T354 1091Q354 1042 318 1008T237 973Z" />
<glyph unicode="k" glyph-name="k" horiz-adv-x="914" d="M322 364V329Q322 84 329 0Q286 10 229 10Q195 10 117 0Q130 167 130 359Q130 384 131 523T133 684Q133 1091 116 1260Q162 1252 229 1250Q284 1248 337 1260L329 1151Q320 988 320 598Q320 585 322 539V477Q322
456 329 456Q342 456 355 468Q401 507 508 630T662 816Q723 807 771 807Q829 807 862 816L865 807Q745 707 516 503L762 162Q858 38 888 9L887 0Q733 10 728 10Q692 10 610 0Q563 80 498 184L394 337Q351 403 333 403Q322 403 322 364Z" />
<glyph unicode="l" glyph-name="l" horiz-adv-x="441" d="M107 1260Q172 1250 225 1250Q265 1250 333 1260Q316 1077 316 635Q316 145 332 0Q229 10 228 10Q201 10 110 0Q127 119 127 677Q127 1032 107 1260Z" />
<glyph unicode="m" glyph-name="m" horiz-adv-x="1480" d="M316 365Q316 119 325 0L228 10Q217 10 116 0Q127 214 127 449Q127 636 113 816Q192 807 232 807Q271 807 322 816Q314 778 311 665Q405 823 570 823Q685 823 752 766Q787 732 820 665Q922 823 1097 823Q1228
823 1300 739Q1355 672 1355 585Q1355 552 1353 461T1350 335Q1350 73 1361 0Q1342 2 1301 6Q1270 10 1255 10Q1258 9 1148 0Q1162 167 1162 300Q1162 500 1160 527Q1148 703 1014 703Q893 703 855 591Q834 521 834 314Q834 242 846 0Q743 10 742 10Q730 10 631
0Q645 103 645 329Q645 550 633 597Q606 703 485 703Q384 703 340 604Q316 552 316 365Z" />
<glyph unicode="n" glyph-name="n" horiz-adv-x="976" d="M858 538Q858 519 854 387T850 210Q850 68 862 0Q750 10 752 10Q739 10 642 0Q662 122 662 322Q662 550 649 595Q621 707 491 707Q388 707 340 609Q311 550 311 384Q311 162 323 0Q221 10 216 10Q180 10
109 0Q126 252 126 455Q126 672 112 816Q164 807 225 807Q264 807 319 816Q310 768 310 675Q367 754 419 786Q482 825 573 825Q711 825 784 750T858 538Z" />
<glyph unicode="o" glyph-name="o" horiz-adv-x="1009" d="M77 403Q77 598 193 713T503 828Q703 828 816 719T930 403Q930 206 816 93T503 -21Q310 -21 194 93T77 403ZM289 405Q289 48 503 48Q717 48 717 405Q717 760 503 760Q289 760 289 405Z" />
<glyph unicode="p" glyph-name="p" horiz-adv-x="1009" d="M307 816L300 698Q401 840 566 840Q732 840 837 707Q932 588 932 417Q932 248 843 132Q740 -9 550 -9Q462 -9 400 27Q361 48 308 103Q308 -243 326 -442Q275 -432 214 -432Q168 -432 109 -442Q130 -189
130 193Q130 603 110 816Q207 807 214 807Q229 807 307 816ZM719 400Q719 737 513 737Q401 737 349 621Q308 534 308 408Q308 80 521 80Q630 80 681 193Q719 278 719 400Z" />
<glyph unicode="q" glyph-name="q" horiz-adv-x="1009" d="M704 698L700 816Q775 807 793 807Q832 807 893 816Q878 610 878 195Q878 -258 896 -442Q858 -432 789 -432Q742 -432 677 -442Q698 -284 698 103Q588 -9 458 -9Q272 -9 168 121Q73 239 73 420Q73 603
177 721T442 840Q606 840 704 698ZM286 390Q286 271 325 189Q376 80 484 80Q704 80 704 406Q704 553 649 642Q592 737 490 737Q286 737 286 390Z" />
<glyph unicode="r" glyph-name="r" horiz-adv-x="630" d="M117 0L124 167Q127 249 127 438Q127 607 116 816Q175 807 228 807Q284 807 325 816Q314 730 314 638Q368 723 406 758Q476 825 565 825Q589 825 609 820Q594 791 594 698Q594 659 603 624L591 616Q562
639 490 639Q381 639 339 548Q319 503 319 379Q319 158 333 0L289 5Q257 10 235 10Q219 10 117 0Z" />
<glyph unicode="s" glyph-name="s" horiz-adv-x="692" d="M95 192H126Q181 63 335 63Q394 63 428 99T462 184Q462 232 420 260Q396 278 316 308Q265 326 201 351Q67 417 67 566Q67 681 146 754T362 828Q468 828 591 778Q555 710 548 626H521Q491 684 468 706Q426
745 357 745Q296 745 258 715T219 633Q219 581 264 553Q294 534 405 497T559 426Q635 365 635 257Q635 157 563 77Q473 -24 310 -24Q211 -24 58 42Q67 67 83 113Q89 145 95 192Z" />
<glyph unicode="t" glyph-name="t" horiz-adv-x="566" d="M359 1116L370 1110Q364 1089 359 804Q456 804 476 805L539 810Q534 787 534 768Q534 742 539 716Q465 723 354 723Q354 685 352 559T349 396Q349 195 367 139Q390 71 471 71Q523 71 573 107Q566 73 566
67Q566 51 573 27Q477 -23 381 -23Q284 -23 228 23Q157 78 157 214Q157 245 162 446T167 723H116Q97 723 36 717Q41 743 41 755Q41 779 36 810Q83 804 94 804H168Q168 919 165 997Q287 1053 359 1116Z" />
<glyph unicode="u" glyph-name="u" horiz-adv-x="976" d="M117 279Q117 339 120 458T124 638Q124 726 113 816Q174 807 222 807Q278 807 333 816Q313 713 313 446Q313 261 325 217Q339 167 380 137T474 107Q585 107 635 204Q663 261 663 414Q663 713 651 816Q713
807 750 807Q796 807 865 816Q849 565 849 361Q849 149 862 0L804 6Q772 10 755 10Q733 10 659 0Q665 63 665 138Q548 -19 390 -19Q225 -19 151 116Q117 178 117 279Z" />
<glyph unicode="v" glyph-name="v" horiz-adv-x="850" d="M257 816L278 752Q354 509 474 192L494 242Q536 354 558 422Q592 521 624 617Q665 739 678 816Q714 807 748 807Q789 807 829 816L732 595Q674 465 597 271Q558 172 498 -9Q455 2 427 2Q397 2 340 -9Q316
70 264 221Q162 476 26 816Q100 807 143 807Q204 807 257 816Z" />
<glyph unicode="w" glyph-name="w" horiz-adv-x="1354" d="M255 816L303 652Q328 568 446 201L488 320Q558 516 645 816Q678 807 713 807Q754 807 794 816L822 721Q905 432 991 204L1017 272Q1092 470 1188 816Q1228 807 1263 807Q1290 807 1334 816Q1305 743
1250 609L1178 433Q1074 177 1017 -9Q985 2 949 2Q917 2 862 -9L834 86Q781 261 750 351L674 578Q667 563 627 453L526 164Q512 122 476 -9Q449 2 410 2Q367 2 323 -9L257 211Q193 420 26 816Q86 807 143 807Q204 807 255 816Z" />
<glyph unicode="x" glyph-name="x" horiz-adv-x="850" d="M351 696L456 532Q555 667 639 816Q674 807 710 807Q711 807 798 816L698 700Q577 558 503 461Q548 390 820 0Q707 10 700 10L581 0Q505 130 391 303Q316 204 193 0Q149 10 122 10L30 0Q70 49 185 185T340
378Q322 414 211 575Q146 671 89 748Q68 779 41 816Q112 807 168 807Q206 807 281 816Q303 775 351 696Z" />
<glyph unicode="y" glyph-name="y" horiz-adv-x="850" d="M397 410L477 216L509 287Q573 441 627 616Q672 758 690 816Q732 807 766 807Q794 807 842 816Q754 643 568 210Q354 -289 319 -438Q274 -429 242 -429Q207 -429 164 -438L190 -394Q237 -322 381 -30Q367
13 216 365L13 816Q84 807 133 807Q172 807 249 816Q286 680 397 410Z" />
<glyph unicode="z" glyph-name="z" horiz-adv-x="819" d="M32 0V52Q153 201 449 636L500 711H433Q240 711 80 694Q84 719 84 748Q84 778 80 814Q162 805 422 805Q700 805 765 814V757L713 690Q442 340 311 104H370Q646 104 768 116Q758 83 758 52Q758 16 765 0Q714
0 583 5Q468 10 397 10Q151 10 32 0Z" />
<glyph unicode="{" glyph-name="braceleft" horiz-adv-x="834" d="M47 283V349Q255 354 255 567V1045Q255 1204 296 1269Q365 1377 584 1384V1316Q455 1308 413 1230Q389 1184 389 1074V601Q389 478 362 425Q317 334 176 316Q317 299 362 211Q389 157 389 31V-442Q389
-550 415 -597Q455 -676 584 -684V-751Q371 -745 302 -643Q255 -575 255 -413V66Q255 181 209 231T47 283Z" />
<glyph unicode="|" glyph-name="bar" horiz-adv-x="982" d="M336 -814H133V1495H336V-814Z" />
<glyph unicode="}" glyph-name="braceright" horiz-adv-x="834" d="M787 283Q672 281 626 231T579 66V-413Q579 -575 532 -643Q463 -745 250 -751V-684Q379 -676 419 -597Q445 -550 445 -442V31Q445 157 472 211Q517 299 658 316Q517 334 472 425Q445 478 445
601V1074Q445 1184 421 1230Q379 1308 250 1316V1384Q469 1377 538 1269Q579 1204 579 1045V567Q579 354 787 349V283Z" />
<glyph unicode="~" glyph-name="asciitilde" horiz-adv-x="1135" d="M184 294H99Q106 397 160 468Q221 545 320 545Q401 545 579 481T819 416Q932 416 951 556H1036Q1029 453 975 383Q914 305 814 305Q732 305 563 370T316 435Q269 435 233 403Q189 364 184 294Z" />
</font>
</defs>
</svg>
